<svg width="312" height="50" viewBox="0 0 312 50" fill="none" xmlns="http://www.w3.org/2000/svg">
<path d="M24.822 2.5C28.294 2.5 31.2907 3.12 33.812 4.36C36.3747 5.6 38.338 7.336 39.702 9.568C41.1073 11.7587 41.81 14.3007 41.81 17.194C41.81 20.0873 41.1073 22.65 39.702 24.882C38.338 27.0727 36.3747 28.788 33.812 30.028C31.2907 31.268 28.294 31.888 24.822 31.888H3.928V24.82H24.512C27.3227 24.82 29.5133 24.138 31.084 22.774C32.696 21.41 33.502 19.55 33.502 17.194C33.502 14.838 32.696 12.978 31.084 11.614C29.5133 10.25 27.3227 9.568 24.512 9.568H4.734L8.392 5.476V49H0.208V2.5H24.822ZM66.0922 49.868C61.8349 49.868 58.0942 49.1033 54.8702 47.574C51.6875 46.0033 49.1869 43.8333 47.3682 41.064C45.5909 38.2947 44.7022 35.0913 44.7022 31.454C44.7022 27.7753 45.5909 24.572 47.3682 21.844C49.1869 19.0747 51.6875 16.9253 54.8702 15.396C58.0942 13.8253 61.8349 13.04 66.0922 13.04C70.3495 13.04 74.0695 13.8253 77.2522 15.396C80.4762 16.9253 82.9769 19.0747 84.7542 21.844C86.5729 24.572 87.4822 27.7753 87.4822 31.454C87.4822 35.0913 86.5729 38.2947 84.7542 41.064C82.9769 43.8333 80.4762 46.0033 77.2522 47.574C74.0695 49.1033 70.3495 49.868 66.0922 49.868ZM66.0922 43.544C68.8202 43.544 71.1555 43.048 73.0982 42.056C75.0822 41.064 76.6115 39.6793 77.6862 37.902C78.7609 36.0833 79.2982 33.934 79.2982 31.454C79.2982 28.974 78.7609 26.8453 77.6862 25.068C76.6115 23.2493 75.0822 21.844 73.0982 20.852C71.1555 19.86 68.8202 19.364 66.0922 19.364C63.4055 19.364 61.0702 19.86 59.0862 20.852C57.1022 21.844 55.5729 23.2493 54.4982 25.068C53.4235 26.8453 52.8862 28.974 52.8862 31.454C52.8862 33.934 53.4235 36.0833 54.4982 37.902C55.5729 39.6793 57.1022 41.064 59.0862 42.056C61.0702 43.048 63.4055 43.544 66.0922 43.544ZM102.094 41.994L99.7379 41.126L122.058 13.908H131.358L101.536 49H94.0339V1.26H102.094V41.994ZM112.076 31.64L117.718 26.556L132.412 49H122.926L112.076 31.64ZM153.879 49.868C149.787 49.868 146.15 49.1033 142.967 47.574C139.785 46.0033 137.284 43.8333 135.465 41.064C133.647 38.2947 132.737 35.0707 132.737 31.392C132.737 27.7547 133.585 24.572 135.279 21.844C137.015 19.0747 139.392 16.9253 142.409 15.396C145.468 13.8253 148.961 13.04 152.887 13.04C156.814 13.04 160.203 13.9287 163.055 15.706C165.949 17.442 168.181 19.9013 169.751 23.084C171.322 26.2667 172.107 30.0073 172.107 34.306H139.061V28.168H168.077L164.047 30.462C163.923 28.1473 163.365 26.1633 162.373 24.51C161.423 22.8567 160.121 21.596 158.467 20.728C156.855 19.8187 154.933 19.364 152.701 19.364C150.345 19.364 148.279 19.8393 146.501 20.79C144.765 21.7407 143.401 23.084 142.409 24.82C141.417 26.5147 140.921 28.54 140.921 30.896C140.921 33.5 141.5 35.7527 142.657 37.654C143.856 39.5553 145.53 41.0227 147.679 42.056C149.87 43.048 152.453 43.544 155.429 43.544C158.116 43.544 160.865 43.1307 163.675 42.304C166.486 41.436 168.966 40.2373 171.115 38.708V44.536C168.966 46.1893 166.341 47.4913 163.241 48.442C160.183 49.3927 157.062 49.868 153.879 49.868ZM187.49 2.5V45.342L183.832 41.808H218.862V49H179.306V2.5H187.49ZM224.149 13.66L228.179 14.404L232.209 13.66V49H224.149V13.66ZM228.179 9.258C226.65 9.258 225.389 8.84467 224.397 8.018C223.405 7.15 222.909 6.034 222.909 4.67C222.909 3.306 223.405 2.21067 224.397 1.384C225.389 0.515998 226.65 0.0819979 228.179 0.0819979C229.75 0.0819979 231.01 0.515998 231.961 1.384C232.953 2.21067 233.449 3.306 233.449 4.67C233.449 6.034 232.953 7.15 231.961 8.018C231.01 8.84467 229.75 9.258 228.179 9.258ZM277.071 38.336C277.071 40.692 276.41 42.738 275.087 44.474C273.764 46.21 271.76 47.5533 269.073 48.504C266.386 49.4133 263.018 49.868 258.967 49.868C254.792 49.868 251.176 49.3513 248.117 48.318C245.058 47.2433 242.682 45.7553 240.987 43.854C239.334 41.9113 238.445 39.6793 238.321 37.158H246.505C246.753 38.4807 247.414 39.6587 248.489 40.692C249.605 41.684 251.052 42.4487 252.829 42.986C254.648 43.5233 256.714 43.792 259.029 43.792C262.377 43.792 264.898 43.3993 266.593 42.614C268.288 41.7873 269.135 40.5473 269.135 38.894C269.135 37.778 268.556 36.9307 267.399 36.352C266.283 35.7733 264.154 35.3393 261.013 35.05L254.131 34.43C250.411 34.0993 247.476 33.438 245.327 32.446C243.178 31.4127 241.648 30.1727 240.739 28.726C239.83 27.238 239.375 25.6673 239.375 24.014C239.375 21.6167 240.119 19.612 241.607 18C243.095 16.388 245.162 15.1687 247.807 14.342C250.452 13.474 253.532 13.04 257.045 13.04C260.682 13.04 263.927 13.5567 266.779 14.59C269.631 15.582 271.904 16.9873 273.599 18.806C275.294 20.5833 276.244 22.65 276.451 25.006H268.267C268.102 24.0553 267.606 23.146 266.779 22.278C265.994 21.3687 264.774 20.6247 263.121 20.046C261.509 19.426 259.339 19.116 256.611 19.116C253.718 19.116 251.444 19.488 249.791 20.232C248.179 20.976 247.373 22.0713 247.373 23.518C247.373 24.4273 247.869 25.2127 248.861 25.874C249.853 26.494 251.692 26.928 254.379 27.176L263.245 27.982C266.8 28.3127 269.569 28.9533 271.553 29.904C273.578 30.8133 275.004 31.9913 275.831 33.438C276.658 34.8847 277.071 36.5173 277.071 38.336ZM279.335 20.108V16.45L286.837 14.528L290.185 4.732H294.897V13.908H311.203V20.108H294.897V35.298C294.897 38.2327 295.517 40.2993 296.757 41.498C298.039 42.6553 300.105 43.234 302.957 43.234C304.776 43.234 306.388 43.048 307.793 42.676C309.199 42.2627 310.542 41.684 311.823 40.94V47.574C310.749 48.1113 309.219 48.628 307.235 49.124C305.293 49.62 303.288 49.868 301.221 49.868C297.791 49.868 295.021 49.31 292.913 48.194C290.805 47.0367 289.255 45.466 288.263 43.482C287.313 41.4567 286.837 39.142 286.837 36.538V20.108H279.335Z" fill="url(#paint0_linear_1_3)"/>
<defs>
<linearGradient id="paint0_linear_1_3" x1="154.5" y1="-13" x2="154.5" y2="64" gradientUnits="userSpaceOnUse">
<stop stop-color="#FFDE00"/>
<stop offset="1" stop-color="#D5B901"/>
</linearGradient>
</defs>
</svg>
